:SAMPLES-PER-SECOND 30
:FULLY-SPECIFIED
:DEGREES
507
root  -26.6289 37.8322 -18.4903 178.419 -73.9711 176.407
RightUpLeg  9.704 -4.16203 -3.4372
RightLeg  35.792 -2.75464 -2.41372
RightFoot  -25.0479 0.63746 6.69052
RightToes  0.00048216 0.542163 -0.142577
Spine  19.6906 2.49911 3.86656
Spine1  13.1049 4.88705 -4.98211
HEad  8.52252 39.1832 -15.7853
LeftShoulder1  7.15315 -11.6309 -40.957
LeftArm  -0.368008 50.0152 -15.608
LeftForeArm  13.5361 -9.39855 -6.11336
LeftHand  -0.25398 0.0180481 5.50724
RightShoulder  5.59382 9.88573 35.8008
RightArm  -2.236 -23.1162 32.9003
RightForeArm  -4.83683 16.3686 6.5197
RightHand  -1.26873 2.55551 -18.6471
LeftUpLeg  -18.563 3.82775 -1.01873
LeftLeg  -6.37968 32.4437 -12.1094
LeftFoot  13.5417 -1.6467 6.86209
LeftToes  1.06244e-005 4.65856e-005 -8.18505e-006
508
root  -25.3089 37.7816 -17.8874 170.55 -72.9887 -176.689
RightUpLeg  10.0568 -6.71225 -1.99112
RightLeg  33.2304 -4.67393 -3.56267
RightFoot  -27.4234 0.427592 4.32107
RightToes  0.00048216 0.542163 -0.142577
Spine  18.542 2.24731 8.46623
Spine1  12.7591 5.49931 -5.73409
HEad  11.4005 40.6958 -14.8658
LeftShoulder1  6.87494 -11.088 -40.8137
LeftArm  -2.45391 50.7759 -19.2576
LeftForeArm  12.8942 -10.9698 -5.76492
LeftHand  -0.25398 0.0180481 5.50724
RightShoulder  5.40371 9.62248 35.2038
RightArm  -4.07776 -21.8798 32.2241
RightForeArm  -6.77218 17.3203 6.16218
RightHand  -1.4828 3.5212 -19.4568
LeftUpLeg  -17.2893 4.20127 1.26956
LeftLeg  -8.16867 30.1661 -11.8515
LeftFoot  8.0693 1.06184 -6.60353
LeftToes  1.06244e-005 4.65856e-005 -8.18505e-006
509
root  -23.8802 37.704 -17.2363 161.137 -73.0271 -168.242
RightUpLeg  9.46269 -10.4667 -0.650986
RightLeg  32.6832 -4.42169 -3.30787
RightFoot  -28.1032 0.200199 2.6473
RightToes  0.00048216 0.542163 -0.142577
Spine  18.2464 1.57536 13.1483
Spine1  12.3337 5.36852 -5.74847
HEad  12.7727 41.2939 -14.7138
LeftShoulder1  6.76938 -10.7458 -41.1769
LeftArm  -4.41977 49.9485 -23.2794
LeftForeArm  14.1132 -13.0477 -5.35042
LeftHand  -0.25398 0.0180481 5.50724
RightShoulder  5.33463 9.41428 35.3298
RightArm  -4.3121 -19.6757 30.2553
RightForeArm  -9.5903 18.9909 5.84291
RightHand  -1.60243 3.99277 -19.9724
LeftUpLeg  -16.6627 4.49789 3.37907
LeftLeg  -8.64292 24.7713 -10.6878
LeftFoot  2.89976 2.14664 -16.9606
LeftToes  1.06244e-005 4.65856e-005 -8.18505e-006
510
root  -22.3694 37.7046 -16.621 154.013 -73.8252 -161.9
RightUpLeg  7.74163 -13.4446 0.0974016
RightLeg  33.3623 -3.68901 -2.87431
RightFoot  -27.7618 0.0556522 1.69019
RightToes  0.00048216 0.542163 -0.142577
Spine  18.4538 0.978935 15.668
Spine1  12.0081 4.81987 -4.83147
HEad  13.0934 41.472 -15.1977
LeftShoulder1  6.69153 -10.4165 -41.7018
LeftArm  -6.78533 47.5893 -27.3158
LeftForeArm  17.5716 -15.0422 -4.73551
LeftHand  -0.25398 0.0180481 5.50724
RightShoulder  5.38074 9.3548 35.8669
RightArm  -4.6199 -16.9284 27.828
RightForeArm  -11.2278 20.7539 5.58921
RightHand  -1.57704 3.83159 -19.9915
LeftUpLeg  -17.2508 4.66273 4.09094
LeftLeg  -7.01179 20.0566 -9.39044
LeftFoot  0.594864 1.98954 -18.8435
LeftToes  1.06244e-005 4.65856e-005 -8.18505e-006
511
root  -20.8411 37.887 -16.0586 151.294 -74.9474 -159.653
RightUpLeg  5.11109 -15.1094 0.0930451
RightLeg  34.1776 -3.34258 -2.70568
RightFoot  -26.1207 -0.0759841 0.769543
RightToes  0.00048216 0.542163 -0.142577
Spine  18.9292 0.68659 16.0837
Spine1  11.8893 4.45042 -3.90322
HEad  13.342 41.6663 -15.5391
LeftShoulder1  6.56888 -10.0595 -42.0343
LeftArm  -9.54126 43.9506 -30.7862
LeftForeArm  21.5669 -16.6928 -4.10435
LeftHand  -0.25398 0.0180481 5.50724
RightShoulder  5.46166 9.45134 36.1734
RightArm  -6.87533 -14.3683 26.5272
RightForeArm  -10.7656 22.2192 5.44869
RightHand  -1.61661 3.978 -20.1686
LeftUpLeg  -17.9403 4.71652 3.49095
LeftLeg  -4.29135 18.1216 -8.74544
LeftFoot  0.858222 1.63931 -15.3422
LeftToes  1.06244e-005 4.65856e-005 -8.18505e-006
512
root  -19.3979 38.2475 -15.5153 151.643 -75.8857 -160.337
RightUpLeg  2.83653 -16.3118 -0.474305
RightLeg  33.7846 -2.98006 -2.41058
RightFoot  -23.16 -0.186151 -0.289394
RightToes  0.00048216 0.542163 -0.142577
Spine  19.4801 0.554524 16.095
Spine1  11.771 4.51692 -4.02165
HEad  14.2941 41.9995 -15.0988
LeftShoulder1  6.48201 -9.84808 -42.1404
LeftArm  -11.447 39.6389 -32.947
LeftForeArm  23.8629 -18.5631 -3.67849
LeftHand  -0.25398 0.0180481 5.50724
RightShoulder  5.47238 9.53857 35.9779
RightArm  -10.1177 -12.5535 27.0787
RightForeArm  -10.1856 23.5808 5.54798
RightHand  -1.88766 4.98355 -21.2383
LeftUpLeg  -18.2255 6.82318 1.90825
LeftLeg  -0.0308213 15.9657 -7.44296
LeftFoot  1.01572 1.37789 -12.7382
LeftToes  1.06244e-005 4.65856e-005 -8.18505e-006
513
root  -18.0799 38.7094 -14.9682 153.47 -76.4998 -162.409
RightUpLeg  1.49208 -17.5972 -1.38557
RightLeg  31.7206 -2.26963 -1.77319
RightFoot  -19.5511 -0.209242 -1.0605
RightToes  0.00048216 0.542163 -0.142577
Spine  19.8871 0.469985 16.4528
Spine1  11.387 4.89507 -5.24786
HEad  16.1433 42.4073 -13.9142
LeftShoulder1  6.49369 -9.86857 -42.153
LeftArm  -11.979 35.503 -33.5355
LeftForeArm  24.5416 -21.5429 -3.60086
LeftHand  -0.25398 0.0180481 5.50724
RightShoulder  5.39399 9.49927 35.5118
RightArm  -11.5238 -11.5398 28.7851
RightForeArm  -11.3361 25.1037 5.93988
RightHand  -2.28814 6.28686 -22.856
LeftUpLeg  -19.2008 15.1254 -1.89919
LeftLeg  7.12116 8.33204 -3.47132
LeftFoot  -0.606561 1.1634 -12.3017
LeftToes  1.06244e-005 4.65856e-005 -8.18505e-006
514
root  -16.8505 39.2222 -14.4302 157.661 -77.0487 -166.57
RightUpLeg  0.546927 -18.7787 -2.66557
RightLeg  28.456 -1.3531 -1.0612
RightFoot  -15.7826 -0.161075 -1.39097
RightToes  0.00048216 0.542163 -0.142577
Spine  20.0293 0.502253 16.2775
Spine1  10.8721 5.34557 -6.87419
HEad  18.4391 42.8337 -12.5446
LeftShoulder1  6.50394 -9.93399 -42.0049
LeftArm  -12.6555 32.1263 -33.1041
LeftForeArm  25.9819 -25.9471 -4.15741
LeftHand  -0.25398 0.0180481 5.50724
RightShoulder  5.31065 9.44272 35.0583
RightArm  -9.77442 -11.0989 30.5701
RightForeArm  -12.752 26.6773 6.37764
RightHand  -2.51144 6.92899 -23.7546
LeftUpLeg  -19.9789 21.6927 -5.06918
LeftLeg  13.7436 3.20991 0.577263
LeftFoot  -2.2211 0.880202 -10.8314
LeftToes  1.06244e-005 4.65856e-005 -8.18505e-006
515
root  -15.6951 39.6858 -13.902 163.559 -77.4875 -172.15
RightUpLeg  -0.520478 -19.6654 -4.04582
RightLeg  25.051 -0.454983 -0.367678
RightFoot  -12.196 -0.0939672 -1.51053
RightToes  0.00048216 0.542163 -0.142577
Spine  19.784 0.669243 15.3992
Spine1  10.3876 5.68881 -8.18627
HEad  20.508 43.2766 -11.4909
LeftShoulder1  6.3806 -9.83226 -41.4848
LeftArm  -14.1998 29.5514 -32.5461
LeftForeArm  28.6664 -31.3663 -5.26616
LeftHand  -0.25398 0.0180481 5.50724
RightShoulder  5.29418 9.52778 34.6703
RightArm  -6.32388 -11.1371 32.0338
RightForeArm  -11.5796 28.0063 6.64187
RightHand  -2.4287 6.71665 -23.3765
LeftUpLeg  -19.3116 19.296 -4.12921
LeftLeg  20.4239 6.91567 3.28033
LeftFoot  -3.36838 0.623693 -8.66268
LeftToes  1.06244e-005 4.65856e-005 -8.18505e-006
516
root  -14.6064 40.0039 -13.3686 168.814 -77.8157 -177.067
RightUpLeg  -1.64555 -19.4035 -5.29379
RightLeg  22.2478 -0.70684 0.445598
RightFoot  -9.09297 -0.0352461 -1.38162
RightToes  0.00048216 0.542163 -0.142577
Spine  19.3273 0.821023 14.3623
Spine1  9.98271 5.86857 -8.99654
HEad  22.0906 43.7336 -10.7865
LeftShoulder1  6.13697 -9.58115 -40.5982
LeftArm  -15.9939 27.5526 -32.199
LeftForeArm  31.2594 -37.2037 -6.60469
LeftHand  -0.25398 0.0180481 5.50724
RightShoulder  5.3368 9.72772 34.3816
RightArm  -2.85946 -11.7742 33.2763
RightForeArm  -8.30913 28.891 6.69843
RightHand  -2.29589 6.41164 -22.7
LeftUpLeg  -17.9298 15.5861 -2.10174
LeftLeg  27.4561 9.33865 5.52841
LeftFoot  -4.57927 0.492165 -7.87082
LeftToes  1.06244e-005 4.65856e-005 -8.18505e-006
517
root  -13.5553 40.1583 -12.8215 172.74 -78.1883 179.297
RightUpLeg  -2.86541 -17.9403 -6.39667
RightLeg  20.1524 -2.38929 1.26212
RightFoot  -6.54092 -0.00425702 -0.958565
RightToes  0.00048216 0.542163 -0.142577
Spine  18.7943 0.886907 13.3739
Spine1  9.72252 5.93308 -9.4681
HEad  23.366 44.1789 -10.1666
LeftShoulder1  5.88338 -9.31823 -39.6375
LeftArm  -17.7037 25.9123 -31.7188
LeftForeArm  33.3411 -43.0527 -8.21828
LeftHand  -0.25398 0.0180481 5.50724
RightShoulder  5.39934 9.89966 34.3311
RightArm  0.0952901 -13.104 34.3063
RightForeArm  -6.05679 29.3442 6.69658
RightHand  -2.29367 6.40693 -22.6851
LeftUpLeg  -16.0031 12.39 0.135141
LeftLeg  33.8765 9.10247 6.85252
LeftFoot  -5.65904 0.402854 -7.42476
LeftToes  1.06244e-005 4.65856e-005 -8.18505e-006
518
root  -12.5195 40.1775 -12.2542 175.425 -78.6824 176.919
RightUpLeg  -4.45122 -17.2073 -7.18374
RightLeg  18.8507 -3.60456 1.7379
RightFoot  -4.4217 0.0124345 -0.692407
RightToes  0.00048216 0.542163 -0.142577
Spine  18.1004 0.840231 12.4803
Spine1  9.73318 5.87154 -9.74917
HEad  24.4456 44.577 -9.51056
LeftShoulder1  5.66775 -9.07181 -38.8596
LeftArm  -19.2894 24.419 -30.8384
LeftForeArm  35.1359 -48.5905 -10.0898
LeftHand  -0.25398 0.0180481 5.50724
RightShoulder  5.45687 9.9734 34.5352
RightArm  2.43576 -14.9797 35.1192
RightForeArm  -6.28789 29.4235 6.72818
RightHand  -2.29381 6.26225 -22.9544
LeftUpLeg  -13.4986 9.09473 2.56082
LeftLeg  39.0928 8.47245 7.67968
LeftFoot  -5.93947 0.340858 -6.4728
LeftToes  1.06244e-005 4.65856e-005 -8.18505e-006
519
root  -11.4858 40.0837 -11.6424 176.232 -79.4683 176.388
RightUpLeg  -6.49287 -17.3119 -7.45242
RightLeg  18.5267 -4.23798 1.7215
RightFoot  -2.56766 0.0445171 -0.803939
RightToes  0.00048216 0.542163 -0.142577
Spine  17.3035 0.531412 11.8814
Spine1  10.0525 5.55037 -9.81887
HEad  25.2619 44.8787 -8.93684
LeftShoulder1  5.46097 -8.77704 -38.2808
LeftArm  -20.9438 22.9676 -29.7735
LeftForeArm  36.9616 -53.4162 -12.0994
LeftHand  -0.25398 0.0180481 5.50724
RightShoulder  5.48853 9.96787 34.7834
RightArm  3.99436 -17.1901 35.8766
RightForeArm  -7.98941 29.1359 6.74345
RightHand  -2.17702 5.71197 -22.8551
LeftUpLeg  -10.2998 5.27182 5.1627
LeftLeg  42.6588 8.2002 8.39463
LeftFoot  -6.04824 0.329881 -6.36176
LeftToes  1.06244e-005 4.65856e-005 -8.18505e-006
